<?xml version="1.0" encoding="utf-8"?>
<!-- Generator: Adobe Illustrator 16.0.0, SVG Export Plug-In . SVG Version: 6.00 Build 0)  -->
<!DOCTYPE svg PUBLIC "-//W3C//DTD SVG 1.1//EN" "http://www.w3.org/Graphics/SVG/1.1/DTD/svg11.dtd">
<svg version="1.1" id="图层_1" xmlns="http://www.w3.org/2000/svg" xmlns:xlink="http://www.w3.org/1999/xlink" x="0px" y="0px"
	 viewBox="0 0 482 482" enable-background="new 0 0 482 482" xml:space="preserve">
<g>
	<g>
		<polygon fill="#2F9BB5" points="135.629,423.087 33.336,240.136 135.629,57.187 340.223,57.187 341.119,58.792 442.518,240.136 
			340.223,423.087 		"/>
	</g>
	<path fill="#FFFFFF" d="M211.055,181.679"/>
	<polygon fill="#4DBFD7" points="341.118,59.1 135.629,423.394 135.629,423.394 340.223,423.394 442.518,240.442 	"/>
	<path fill="#EFEFEF" d="M274.058,158.566L142.44,318.548h169.484l11.638-51.372c0,0-8.028,12.735-26.914,29.295
		c-18.884,16.555-110.377,8.159-110.377,8.159l123.47-155.881l-142.57,0.243l-5.098,31.429c0,0-1.958,9.997,4.272,3.736
		c6.633-6.667,5.948-23.04,30.407-26.051C221.213,155.094,274.058,158.566,274.058,158.566z"/>
</g>
</svg>
